<svg width="28" height="28" viewBox="0 0 28 28" fill="none" xmlns="http://www.w3.org/2000/svg">
<g clip-path="url(#clip0_1131_4139)">
<rect width="28" height="28" fill="#FF571E"/>
<ellipse cx="22.3999" cy="15.4" rx="2.1" ry="4.2" fill="#1E1E1E"/>
<path d="M6.29993 14C6.29993 9.74745 9.74734 6.30005 13.9999 6.30005C18.2525 6.30005 21.6999 9.74746 21.6999 14V28.7H6.29993V14Z" fill="#B92E00"/>
<path d="M24.4999 19.6L21.5922 13.3L18.8999 21L24.4999 19.6Z" fill="#B92E00"/>
<circle cx="16.0999" cy="15.4" r="4.2" fill="#1E1E1E"/>
<path fill-rule="evenodd" clip-rule="evenodd" d="M22.9196 14.679L20.1196 15.379L19.78 14.0208L22.58 13.3208L22.9196 14.679Z" fill="#1E1E1E"/>
<path fill-rule="evenodd" clip-rule="evenodd" d="M7.52169 15.3135C7.81365 14.8058 8.36751 14.35 9.09978 14.35H12.9498C13.3364 14.35 13.6498 14.6634 13.6498 15.05C13.6498 15.4366 13.3364 15.75 12.9498 15.75H9.09978C8.99205 15.75 8.8459 15.8192 8.73536 16.0114C8.62115 16.21 8.63015 16.3955 8.67588 16.4869C8.84877 16.8327 8.70861 17.2532 8.36283 17.4261C8.01705 17.599 7.59657 17.4588 7.42368 17.113C7.11941 16.5045 7.23341 15.8149 7.52169 15.3135Z" fill="#1E1E1E"/>
<path d="M16.0655 8.32537C12.9639 8.32537 10.4655 9.77512 9.60393 10.5C7.01933 8.32537 4.43483 7.02061 6.15792 5.71583C7.47129 4.7213 8.88884 6.01671 9.51652 6.89363C8.80987 5.83916 7.94981 3.87521 9.60393 3.54118C11.0594 3.24726 12.0026 4.58772 12.4336 5.62281C12.1397 4.58773 12.1651 3.24728 13.9116 3.54118C15.9793 3.88912 16.2091 6.87561 16.0655 8.32537Z" fill="#8D0000"/>
</g>
<defs>
<clipPath id="clip0_1131_4139">
<rect width="28" height="28" fill="white"/>
</clipPath>
</defs>
</svg>
