<svg width="20" height="20" viewBox="0 0 20 20" fill="none" xmlns="http://www.w3.org/2000/svg">
<path fill-rule="evenodd" clip-rule="evenodd" d="M16.7071 4.70711C17.0976 4.31658 17.0976 3.68342 16.7071 3.29289C16.3166 2.90237 15.6834 2.90237 15.2929 3.29289L9.99998 8.58579L4.70711 3.29291C4.31658 2.90239 3.68342 2.90239 3.29289 3.29291C2.90237 3.68344 2.90237 4.3166 3.29289 4.70713L8.58577 10L3.29292 15.2928C2.9024 15.6834 2.9024 16.3165 3.29292 16.7071C3.68345 17.0976 4.31661 17.0976 4.70714 16.7071L9.99998 11.4142L15.2928 16.7071C15.6834 17.0976 16.3165 17.0976 16.7071 16.7071C17.0976 16.3166 17.0976 15.6834 16.7071 15.2929L11.4142 10L16.7071 4.70711Z" fill="#6D6D6D"/>
</svg>
