<svg width="20" height="20" viewBox="0 0 20 20" fill="none" xmlns="http://www.w3.org/2000/svg">
<path fill-rule="evenodd" clip-rule="evenodd" d="M14.0833 4.7275L7.217 9.72749L6.15742 8.2724L13.0238 3.27241L14.0833 4.7275ZM7.217 10.0349L14.0833 15.0349L13.0238 16.4899L6.15742 11.49L7.217 10.0349Z" fill="#6D6D6D"/>
<path fill-rule="evenodd" clip-rule="evenodd" d="M15.0001 1.89998C14.3926 1.89998 13.9001 2.39246 13.9001 2.99998C13.9001 3.60749 14.3926 4.09998 15.0001 4.09998C15.6076 4.09998 16.1001 3.60749 16.1001 2.99998C16.1001 2.39246 15.6076 1.89998 15.0001 1.89998ZM12.1001 2.99998C12.1001 1.39835 13.3985 0.0999756 15.0001 0.0999756C16.6017 0.0999756 17.9001 1.39835 17.9001 2.99998C17.9001 4.6016 16.6017 5.89998 15.0001 5.89998C13.3985 5.89998 12.1001 4.6016 12.1001 2.99998Z" fill="#6D6D6D"/>
<path fill-rule="evenodd" clip-rule="evenodd" d="M5.0001 8.89998C4.39258 8.89998 3.9001 9.39246 3.9001 9.99998C3.9001 10.6075 4.39258 11.1 5.0001 11.1C5.60761 11.1 6.1001 10.6075 6.1001 9.99998C6.1001 9.39246 5.60761 8.89998 5.0001 8.89998ZM2.1001 9.99998C2.1001 8.39835 3.39847 7.09998 5.0001 7.09998C6.60172 7.09998 7.9001 8.39835 7.9001 9.99998C7.9001 11.6016 6.60172 12.9 5.0001 12.9C3.39847 12.9 2.1001 11.6016 2.1001 9.99998Z" fill="#6D6D6D"/>
<path fill-rule="evenodd" clip-rule="evenodd" d="M15.0001 15.9C14.3926 15.9 13.9001 16.3925 13.9001 17C13.9001 17.6075 14.3926 18.1 15.0001 18.1C15.6076 18.1 16.1001 17.6075 16.1001 17C16.1001 16.3925 15.6076 15.9 15.0001 15.9ZM12.1001 17C12.1001 15.3983 13.3985 14.1 15.0001 14.1C16.6017 14.1 17.9001 15.3983 17.9001 17C17.9001 18.6016 16.6017 19.9 15.0001 19.9C13.3985 19.9 12.1001 18.6016 12.1001 17Z" fill="#6D6D6D"/>
</svg>
