<svg width="20" height="20" viewBox="0 0 20 20" fill="none" xmlns="http://www.w3.org/2000/svg">
<g clip-path="url(#clip0_309_2312)">
<path fill-rule="evenodd" clip-rule="evenodd" d="M7.50449 2.33055C8.33946 -0.0174104 11.66 -0.0174104 12.495 2.33055C12.6634 2.80418 13.2044 3.02829 13.6584 2.81248C15.9091 1.74263 18.2571 4.09059 17.1872 6.34127C16.9714 6.79527 17.1955 7.3363 17.6691 7.50473C20.0171 8.3397 20.0171 11.6602 17.6691 12.4952C17.1955 12.6636 16.9714 13.2047 17.1872 13.6587C18.2571 15.9093 15.9091 18.2573 13.6584 17.1875C13.2044 16.9716 12.6634 17.1957 12.495 17.6694C11.66 20.0173 8.33946 20.0173 7.50449 17.6694C7.33606 17.1957 6.79503 16.9716 6.34102 17.1875C4.09035 18.2573 1.74238 15.9093 2.81223 13.6587C3.02804 13.2047 2.80394 12.6636 2.33031 12.4952C-0.0176545 11.6602 -0.0176545 8.3397 2.33031 7.50473C2.80394 7.3363 3.02804 6.79527 2.81223 6.34127C1.74238 4.09059 4.09035 1.74263 6.34102 2.81248C6.79503 3.02829 7.33606 2.80418 7.50449 2.33055ZM10.799 2.93366C10.5315 2.18155 9.4679 2.18155 9.20044 2.93366C8.67463 4.41227 6.98561 5.11189 5.56826 4.43816C4.84732 4.09546 4.09522 4.84757 4.43791 5.5685C5.11164 6.98585 4.41203 8.67487 2.93341 9.20069C2.18131 9.46814 2.18131 10.5318 2.93341 10.7992C4.41203 11.3251 5.11164 13.0141 4.43791 14.4314C4.09522 15.1524 4.84732 15.9045 5.56826 15.5618C6.98561 14.888 8.67463 15.5877 9.20044 17.0663C9.4679 17.8184 10.5315 17.8184 10.799 17.0663C11.3248 15.5877 13.0138 14.888 14.4312 15.5618C15.1521 15.9045 15.9042 15.1524 15.5615 14.4314C14.8878 13.0141 15.5874 11.3251 17.066 10.7992C17.8181 10.5318 17.8181 9.46814 17.066 9.20069C15.5874 8.67487 14.8878 6.98585 15.5615 5.5685C15.9042 4.84757 15.1521 4.09546 14.4312 4.43816C13.0138 5.11189 11.3248 4.41228 10.799 2.93366Z" fill="#6D6D6D"/>
<path fill-rule="evenodd" clip-rule="evenodd" d="M13.7997 9.99995C13.7997 12.0986 12.0984 13.8 9.99971 13.8C7.90103 13.8 6.19971 12.0986 6.19971 9.99995C6.19971 7.90127 7.90103 6.19995 9.99971 6.19995C12.0984 6.19995 13.7997 7.90127 13.7997 9.99995ZM9.99971 12C11.1043 12 11.9997 11.1045 11.9997 9.99995C11.9997 8.89538 11.1043 7.99995 9.99971 7.99995C8.89514 7.99995 7.99971 8.89538 7.99971 9.99995C7.99971 11.1045 8.89514 12 9.99971 12Z" fill="#6D6D6D"/>
</g>
<defs>
<clipPath id="clip0_309_2312">
<rect width="20" height="20" fill="white"/>
</clipPath>
</defs>
</svg>
